<svg width="84" height="84" viewBox="0 0 84 84" fill="none" xmlns="http://www.w3.org/2000/svg">
<path d="M66.5 66.5C66.5 70.385 63.385 73.5 59.5 73.5H24.5C22.6435 73.5 20.863 72.7625 19.5503 71.4497C18.2375 70.137 17.5 68.3565 17.5 66.5V42H10.5V35H73.5V42H66.5V66.5ZM28 5.25C24.8903 5.25 21.908 6.48531 19.7092 8.68417C17.5103 10.883 16.275 13.8653 16.275 16.975C16.275 20.0847 17.5103 23.067 19.7092 25.2658C21.908 27.4647 24.8903 28.7 28 28.7H33.355C34.72 28.7 36.015 29.05 37.135 29.75H44.205C42.175 26.075 38.01 23.625 33.355 23.625H28C24.5 23.625 21.525 20.195 21.525 16.625C21.525 13.055 24.5 10.5 28 10.5V5.25ZM44.975 7C44.975 10.5 42 13.475 38.5 13.475V18.725C45.22 18.725 50.75 23.45 52.115 29.75H57.47C56.9763 26.6575 55.7411 23.7305 53.8699 21.2193C51.9987 18.7081 49.5472 16.6874 46.725 15.33C48.895 13.195 50.225 10.255 50.225 7H44.975Z" fill="white"/>
</svg>
