<svg width="72" height="84" viewBox="0 0 72 84" fill="none" xmlns="http://www.w3.org/2000/svg">
<path d="M18 31.5L66 31.5V45.5L18 45.5V31.5Z" stroke="white" stroke-width="2" stroke-miterlimit="2" stroke-linecap="round" stroke-linejoin="round"/>
<path d="M18 21L18 57.75C18 59.1424 18.4741 60.4777 19.318 61.4623C20.1619 62.4469 21.3065 63 22.5 63L61.5 63C62.6935 63 63.8381 62.4469 64.682 61.4623C65.5259 60.4777 66 59.1424 66 57.75V12.25C66 10.8576 65.5259 9.52226 64.682 8.53769C63.8381 7.55312 62.6935 7 61.5 7L10.5 7C9.30653 7 8.16194 7.55312 7.31802 8.53769C6.47411 9.52226 6 10.8576 6 12.25L6 71.75C6 73.1424 6.47411 74.4777 7.31802 75.4623C8.16194 76.4469 9.30653 77 10.5 77L49.5 77C50.6935 77 51.8381 76.4469 52.682 75.4623C53.5259 74.4777 54 73.1424 54 71.75V64.75" stroke="white" stroke-width="2" stroke-miterlimit="2" stroke-linecap="round" stroke-linejoin="round"/>
</svg>
