<svg width="84" height="84" viewBox="0 0 84 84" fill="none" xmlns="http://www.w3.org/2000/svg">
<path d="M19.04 27.86L20.86 26.005C22.89 23.975 26.25 23.975 28.35 26.145L28.42 26.25C30.135 28 32.41 28.84 34.895 29.085C38.29 29.4 41.58 31.22 43.75 34.51C46.13 38.29 46.095 43.33 43.61 47.075C42.6727 48.5572 41.4123 49.8082 39.9231 50.7343C38.4339 51.6604 36.7545 52.2376 35.0106 52.4227C33.2667 52.6079 31.5035 52.3962 29.8531 51.8035C28.2026 51.2107 26.7076 50.2523 25.48 49C23.52 47.075 22.4 44.59 22.12 42C21.84 39.445 20.825 37.03 19.04 35.245C17.01 33.25 17.01 29.89 19.04 27.86ZM33.74 56C29.645 56 25.83 54.425 22.995 51.52C20.545 49 19.005 45.85 18.62 42.42C18.515 41.37 18.2 40.005 17.36 38.745C15.26 41.65 14 45.15 14 49C14 54.74 16.8 59.815 21.105 63H66.5V59.5C66.5 46.9 58.135 36.225 46.69 32.725C49.805 37.625 49.735 44.17 46.55 49C43.75 53.375 38.92 56 33.74 56ZM51.73 26.46H56.175C59.22 26.46 61.88 28.595 61.88 32.41V35H66.255V31.5C66.255 26.25 61.6 22.26 56.175 22.26H51.73C48.825 22.26 46.34 19.39 46.34 16.45C46.34 13.51 48.825 11.34 51.73 11.34V7C46.34 7 42 11.34 42 16.73C42 22.12 46.34 26.46 51.73 26.46ZM15.75 26.425C15.96 26.075 16.24 25.725 16.555 25.375L18.375 23.555C18.69 23.24 19.04 22.995 19.39 22.75L14.455 17.745C14.945 16.8 14.77 15.575 14 14.77C13.4988 14.2821 12.8269 14.0091 12.1275 14.0091C11.428 14.0091 10.7562 14.2821 10.255 14.77C9.76498 15.26 9.51998 15.855 9.48498 16.485C8.85498 16.52 8.25998 16.765 7.76998 17.255C6.75498 18.27 6.75498 19.95 7.76998 21C8.57498 21.77 9.76498 21.945 10.745 21.455L15.75 26.425ZM64.365 15.365C66.15 13.58 67.27 11.165 67.27 8.47H62.895C62.895 11.375 60.445 13.825 57.54 13.825V18.165C64.05 18.165 69.16 23.485 69.16 29.995V38.5H73.5V29.995C73.5175 26.942 72.6684 23.9467 71.0514 21.357C69.4344 18.7673 67.1158 16.6895 64.365 15.365ZM17.5 73.5H66.5C70.385 73.5 73.5 70.385 73.5 66.5H10.5C10.5 68.3565 11.2375 70.137 12.5502 71.4497C13.863 72.7625 15.6435 73.5 17.5 73.5Z" fill="white"/>
</svg>
