<svg width="361" height="65" viewBox="0 0 361 65" fill="none" xmlns="http://www.w3.org/2000/svg">
<path d="M81.152 48.432C79.936 48.432 79.008 48.096 78.368 47.424C77.728 46.752 77.408 45.808 77.408 44.592V17.952C77.408 15.424 78.672 14.16 81.2 14.16H92.864C96.64 14.16 99.552 15.12 101.6 17.04C103.648 18.928 104.672 21.568 104.672 24.96C104.672 28.352 103.648 31.008 101.6 32.928C99.552 34.848 96.64 35.808 92.864 35.808H84.848V44.592C84.848 45.808 84.528 46.752 83.888 47.424C83.28 48.096 82.368 48.432 81.152 48.432ZM84.848 30.048H91.616C95.552 30.048 97.52 28.352 97.52 24.96C97.52 21.632 95.552 19.968 91.616 19.968H84.848V30.048ZM118.674 48.528C116.147 48.528 113.939 48.032 112.051 47.04C110.195 46.016 108.755 44.592 107.73 42.768C106.707 40.912 106.195 38.72 106.195 36.192C106.195 33.696 106.707 31.536 107.73 29.712C108.755 27.856 110.195 26.432 112.051 25.44C113.939 24.448 116.147 23.952 118.674 23.952C121.203 23.952 123.395 24.448 125.251 25.44C127.139 26.432 128.595 27.856 129.619 29.712C130.675 31.536 131.203 33.696 131.203 36.192C131.203 38.72 130.675 40.912 129.619 42.768C128.595 44.592 127.139 46.016 125.251 47.04C123.395 48.032 121.203 48.528 118.674 48.528ZM118.674 43.104C120.211 43.104 121.459 42.544 122.419 41.424C123.411 40.304 123.907 38.56 123.907 36.192C123.907 33.856 123.411 32.144 122.419 31.056C121.459 29.936 120.211 29.376 118.674 29.376C117.139 29.376 115.891 29.936 114.931 31.056C113.971 32.144 113.491 33.856 113.491 36.192C113.491 38.56 113.971 40.304 114.931 41.424C115.891 42.544 117.139 43.104 118.674 43.104ZM146.946 48.528C140.322 48.528 137.01 45.312 137.01 38.88V29.856H134.994C133.106 29.856 132.162 28.96 132.162 27.168C132.162 25.344 133.106 24.432 134.994 24.432H137.01V20.784C137.01 18.32 138.226 17.088 140.658 17.088C143.058 17.088 144.258 18.32 144.258 20.784V24.432H148.818C150.674 24.432 151.602 25.344 151.602 27.168C151.602 28.96 150.674 29.856 148.818 29.856H144.258V38.592C144.258 39.936 144.562 40.944 145.17 41.616C145.81 42.288 146.818 42.624 148.194 42.624C148.674 42.624 149.122 42.576 149.538 42.48C149.954 42.384 150.338 42.32 150.69 42.288C151.138 42.256 151.506 42.4 151.794 42.72C152.082 43.04 152.226 43.696 152.226 44.688C152.226 45.488 152.098 46.176 151.842 46.752C151.586 47.296 151.138 47.696 150.498 47.952C150.082 48.112 149.506 48.24 148.77 48.336C148.066 48.464 147.458 48.528 146.946 48.528ZM163.808 48.528C162.4 48.528 160.944 48.4 159.44 48.144C157.968 47.888 156.624 47.456 155.408 46.848C154.608 46.432 154.08 45.904 153.824 45.264C153.6 44.624 153.6 44 153.824 43.392C154.048 42.784 154.448 42.336 155.024 42.048C155.6 41.728 156.272 41.728 157.04 42.048C158.352 42.592 159.552 42.976 160.64 43.2C161.76 43.424 162.832 43.536 163.856 43.536C165.2 43.536 166.192 43.328 166.832 42.912C167.472 42.464 167.792 41.888 167.792 41.184C167.792 40.064 166.976 39.36 165.344 39.072L160.304 38.16C158.288 37.808 156.752 37.088 155.696 36C154.64 34.912 154.112 33.488 154.112 31.728C154.112 30.128 154.56 28.752 155.456 27.6C156.352 26.448 157.584 25.552 159.152 24.912C160.72 24.272 162.528 23.952 164.576 23.952C167.392 23.952 169.888 24.496 172.064 25.584C172.8 25.936 173.248 26.432 173.408 27.072C173.6 27.712 173.568 28.336 173.312 28.944C173.056 29.552 172.64 30.016 172.064 30.336C171.488 30.624 170.8 30.592 170 30.24C168.944 29.76 167.984 29.424 167.12 29.232C166.256 29.008 165.44 28.896 164.672 28.896C163.232 28.896 162.192 29.136 161.552 29.616C160.912 30.064 160.592 30.64 160.592 31.344C160.592 32.464 161.344 33.168 162.848 33.456L167.888 34.368C169.968 34.72 171.552 35.424 172.64 36.48C173.728 37.504 174.272 38.912 174.272 40.704C174.272 43.168 173.312 45.088 171.392 46.464C169.472 47.84 166.944 48.528 163.808 48.528ZM195.895 48.432C193.591 48.432 192.439 47.232 192.439 44.832V17.472C192.439 16.256 192.727 15.328 193.303 14.688C193.911 14.048 194.711 13.728 195.703 13.728C196.535 13.728 197.191 13.904 197.671 14.256C198.151 14.576 198.695 15.12 199.303 15.888L214.855 35.712V17.28C214.855 14.912 216.007 13.728 218.311 13.728C220.615 13.728 221.767 14.912 221.767 17.28V44.976C221.767 46.032 221.495 46.88 220.951 47.52C220.407 48.128 219.671 48.432 218.743 48.432C217.847 48.432 217.127 48.256 216.583 47.904C216.071 47.552 215.511 46.992 214.903 46.224L199.351 26.4V44.832C199.351 47.232 198.199 48.432 195.895 48.432ZM232.42 27.264C231.94 27.872 231.428 28.208 230.884 28.272C230.34 28.336 229.876 28.224 229.492 27.936C229.108 27.648 228.884 27.248 228.82 26.736C228.788 26.192 229.028 25.616 229.54 25.008C229.956 24.528 230.276 24.032 230.5 23.52C230.756 23.008 230.948 22.512 231.076 22.032C229.924 21.936 228.996 21.536 228.292 20.832C227.62 20.096 227.284 19.152 227.284 18C227.284 16.784 227.652 15.808 228.388 15.072C229.124 14.304 230.132 13.92 231.412 13.92C232.692 13.92 233.7 14.368 234.436 15.264C235.204 16.128 235.588 17.344 235.588 18.912C235.588 20.16 235.38 21.472 234.964 22.848C234.58 24.192 233.732 25.664 232.42 27.264ZM258.199 48.432C256.983 48.432 256.055 48.096 255.415 47.424C254.775 46.752 254.455 45.808 254.455 44.592V17.952C254.455 15.424 255.719 14.16 258.247 14.16H269.911C273.687 14.16 276.599 15.12 278.647 17.04C280.695 18.928 281.719 21.568 281.719 24.96C281.719 28.352 280.695 31.008 278.647 32.928C276.599 34.848 273.687 35.808 269.911 35.808H261.895V44.592C261.895 45.808 261.575 46.752 260.935 47.424C260.327 48.096 259.415 48.432 258.199 48.432ZM261.895 30.048H268.663C272.599 30.048 274.567 28.352 274.567 24.96C274.567 21.632 272.599 19.968 268.663 19.968H261.895V30.048ZM292.596 48.528C290.836 48.528 289.284 48.192 287.94 47.52C286.596 46.848 285.524 45.936 284.724 44.784C283.956 43.632 283.572 42.336 283.572 40.896C283.572 39.2 284.02 37.84 284.916 36.816C285.812 35.792 287.268 35.072 289.284 34.656C291.3 34.208 293.972 33.984 297.3 33.984H299.028V33.168C299.028 31.76 298.708 30.768 298.068 30.192C297.428 29.584 296.34 29.28 294.804 29.28C293.94 29.28 292.996 29.392 291.972 29.616C290.948 29.808 289.844 30.144 288.66 30.624C287.764 31.008 287.012 31.04 286.404 30.72C285.796 30.368 285.396 29.856 285.204 29.184C285.012 28.48 285.06 27.776 285.348 27.072C285.668 26.368 286.276 25.856 287.172 25.536C288.676 24.96 290.084 24.56 291.396 24.336C292.74 24.08 293.972 23.952 295.092 23.952C298.74 23.952 301.46 24.784 303.252 26.448C305.044 28.08 305.94 30.624 305.94 34.08V44.736C305.94 47.2 304.82 48.432 302.58 48.432C300.308 48.432 299.172 47.2 299.172 44.736V44.448C298.692 45.696 297.876 46.688 296.724 47.424C295.604 48.16 294.228 48.528 292.596 48.528ZM294.228 43.68C295.572 43.68 296.708 43.216 297.636 42.288C298.564 41.36 299.028 40.16 299.028 38.688V37.728H297.348C294.884 37.728 293.14 37.952 292.116 38.4C291.092 38.816 290.58 39.552 290.58 40.608C290.58 41.504 290.884 42.24 291.492 42.816C292.132 43.392 293.044 43.68 294.228 43.68ZM314.995 48.432C312.563 48.432 311.347 47.2 311.347 44.736V27.696C311.347 25.264 312.531 24.048 314.898 24.048C317.267 24.048 318.451 25.264 318.451 27.696V27.888C319.251 26.608 320.323 25.632 321.667 24.96C323.011 24.288 324.515 23.952 326.179 23.952C328.963 23.952 331.043 24.768 332.419 26.4C333.795 28 334.483 30.48 334.483 33.84V44.736C334.483 47.2 333.267 48.432 330.835 48.432C329.683 48.432 328.787 48.112 328.147 47.472C327.539 46.832 327.235 45.92 327.235 44.736V34.176C327.235 32.544 326.931 31.376 326.323 30.672C325.715 29.936 324.819 29.568 323.635 29.568C322.099 29.568 320.867 30.048 319.939 31.008C319.043 31.968 318.595 33.248 318.595 34.848V44.736C318.595 47.2 317.395 48.432 314.995 48.432ZM348.917 48.528C347.509 48.528 346.053 48.4 344.549 48.144C343.077 47.888 341.733 47.456 340.517 46.848C339.717 46.432 339.189 45.904 338.933 45.264C338.709 44.624 338.709 44 338.933 43.392C339.157 42.784 339.557 42.336 340.133 42.048C340.709 41.728 341.381 41.728 342.149 42.048C343.461 42.592 344.661 42.976 345.749 43.2C346.869 43.424 347.941 43.536 348.965 43.536C350.309 43.536 351.301 43.328 351.941 42.912C352.581 42.464 352.901 41.888 352.901 41.184C352.901 40.064 352.085 39.36 350.453 39.072L345.413 38.16C343.397 37.808 341.861 37.088 340.805 36C339.749 34.912 339.221 33.488 339.221 31.728C339.221 30.128 339.669 28.752 340.565 27.6C341.461 26.448 342.693 25.552 344.261 24.912C345.829 24.272 347.637 23.952 349.685 23.952C352.501 23.952 354.997 24.496 357.173 25.584C357.909 25.936 358.357 26.432 358.517 27.072C358.709 27.712 358.677 28.336 358.421 28.944C358.165 29.552 357.749 30.016 357.173 30.336C356.597 30.624 355.909 30.592 355.109 30.24C354.053 29.76 353.093 29.424 352.229 29.232C351.365 29.008 350.549 28.896 349.781 28.896C348.341 28.896 347.301 29.136 346.661 29.616C346.021 30.064 345.701 30.64 345.701 31.344C345.701 32.464 346.453 33.168 347.957 33.456L352.997 34.368C355.077 34.72 356.661 35.424 357.749 36.48C358.837 37.504 359.381 38.912 359.381 40.704C359.381 43.168 358.421 45.088 356.501 46.464C354.581 47.84 352.053 48.528 348.917 48.528Z" fill="black"/>
<path d="M9.02778 19.3125C9.02778 15.3137 12.2665 12.0625 16.25 12.0625C20.2335 12.0625 23.4722 15.3137 23.4722 19.3125C23.4722 23.3113 20.2335 26.5625 16.25 26.5625C12.2665 26.5625 9.02778 23.3113 9.02778 19.3125ZM32.0937 22.9375C30.4575 30.1988 23.98 35.625 16.25 35.625C7.27526 35.625 0 28.3184 0 19.3125C0 10.3032 7.27526 3 16.25 3C23.98 3 30.4575 8.42277 32.0937 15.6875H40.1962C41.1892 14.5773 42.6337 13.875 44.2361 13.875H55.9722C58.9627 13.875 61.3889 16.3105 61.3889 19.3125C61.3889 22.3145 58.9627 24.75 55.9722 24.75H44.2361C42.6337 24.75 41.1892 24.0477 40.1962 22.9375H32.0937ZM16.25 8.4375C10.2668 8.4375 5.41667 13.3063 5.41667 19.3125C5.41667 25.3164 10.2668 30.1875 16.25 30.1875C22.2309 30.1875 27.0833 25.3164 27.0833 19.3125C27.0833 13.3063 22.2309 8.4375 16.25 8.4375ZM47.8472 32.9062V33.8125H58.6806C60.1814 33.8125 61.3889 35.0246 61.3889 36.5312C61.3889 38.0379 60.1814 39.25 58.6806 39.25H31.5972C30.0964 39.25 28.8889 38.0379 28.8889 36.5312C28.8889 35.0246 30.0964 33.8125 31.5972 33.8125H42.4306V32.9062C42.4306 31.3996 43.638 30.1875 45.1389 30.1875C46.6398 30.1875 47.8472 31.3996 47.8472 32.9062ZM32.5 55.5625V42.875H57.7778V55.5625C57.7778 58.5645 55.3516 61 52.3611 61H37.9167C34.9262 61 32.5 58.5645 32.5 55.5625ZM19.8611 39.25C22.8516 39.25 25.2778 41.6855 25.2778 44.6875C25.2778 47.6895 22.8516 50.125 19.8611 50.125H18.0556C18.0556 52.1301 16.4418 53.75 14.4444 53.75H7.22222C5.22821 53.75 3.61111 52.1301 3.61111 50.125V41.0625C3.61111 40.0656 4.4191 39.25 5.41667 39.25H19.8611ZM21.6667 44.6875C21.6667 43.6906 20.8542 42.875 19.8611 42.875H18.0556V46.5H19.8611C20.8542 46.5 21.6667 45.6844 21.6667 44.6875ZM22.5694 55.5625C24.0703 55.5625 25.2778 56.7746 25.2778 58.2812C25.2778 59.7879 24.0703 61 22.5694 61H2.70833C1.21311 61 0 59.7879 0 58.2812C0 56.7746 1.21311 55.5625 2.70833 55.5625H22.5694Z" fill="black"/>
</svg>
